<mxfile host="65bd71144e">
    <diagram id="_daSzj3dF1eXa3e2dV3X" name="第1頁">
        <mxGraphModel dx="1737" dy="1179" grid="1" gridSize="10" guides="1" tooltips="1" connect="1" arrows="1" fold="1" page="1" pageScale="1" pageWidth="827" pageHeight="1169" math="0" shadow="0">
            <root>
                <mxCell id="0"/>
                <mxCell id="1" parent="0"/>
                <mxCell id="2" value="&lt;font style=&quot;font-size: 17px;&quot;&gt;resident&lt;/font&gt;" style="shape=umlActor;verticalLabelPosition=bottom;verticalAlign=top;html=1;" vertex="1" parent="1">
                    <mxGeometry x="82" y="200" width="45" height="90" as="geometry"/>
                </mxCell>
                <mxCell id="3" value="" style="endArrow=none;startArrow=none;endFill=0;startFill=0;endSize=8;html=1;verticalAlign=bottom;labelBackgroundColor=none;strokeWidth=2;dashed=1;" edge="1" parent="1">
                    <mxGeometry width="160" relative="1" as="geometry">
                        <mxPoint x="102" y="300" as="sourcePoint"/>
                        <mxPoint x="102" y="500" as="targetPoint"/>
                    </mxGeometry>
                </mxCell>
                <mxCell id="5" value="" style="endArrow=open;startArrow=none;endFill=0;startFill=0;endSize=8;html=1;verticalAlign=bottom;labelBackgroundColor=none;strokeWidth=2;fontSize=17;" edge="1" parent="1">
                    <mxGeometry width="160" relative="1" as="geometry">
                        <mxPoint x="121" y="350" as="sourcePoint"/>
                        <mxPoint x="321" y="350" as="targetPoint"/>
                    </mxGeometry>
                </mxCell>
                <mxCell id="13" value="Tweet announcement()" style="edgeLabel;html=1;align=center;verticalAlign=middle;resizable=0;points=[];fontSize=17;" vertex="1" connectable="0" parent="5">
                    <mxGeometry x="0.1982" relative="1" as="geometry">
                        <mxPoint x="-13" y="-20" as="offset"/>
                    </mxGeometry>
                </mxCell>
                <mxCell id="6" value="" style="endArrow=none;startArrow=none;endFill=0;startFill=0;endSize=8;html=1;verticalAlign=bottom;labelBackgroundColor=none;strokeWidth=2;dashed=1;" edge="1" parent="1">
                    <mxGeometry width="160" relative="1" as="geometry">
                        <mxPoint x="339.58" y="260" as="sourcePoint"/>
                        <mxPoint x="339.58" y="330" as="targetPoint"/>
                    </mxGeometry>
                </mxCell>
                <mxCell id="7" value="APP" style="rounded=0;whiteSpace=wrap;html=1;fontSize=17;" vertex="1" parent="1">
                    <mxGeometry x="280" y="200" width="120" height="60" as="geometry"/>
                </mxCell>
                <mxCell id="8" value="" style="endArrow=none;startArrow=none;endFill=0;startFill=0;endSize=8;html=1;verticalAlign=bottom;labelBackgroundColor=none;strokeWidth=2;dashed=1;" edge="1" parent="1">
                    <mxGeometry width="160" relative="1" as="geometry">
                        <mxPoint x="339.58" y="430" as="sourcePoint"/>
                        <mxPoint x="340" y="520" as="targetPoint"/>
                    </mxGeometry>
                </mxCell>
                <mxCell id="11" value="" style="rounded=0;whiteSpace=wrap;html=1;fontSize=17;" vertex="1" parent="1">
                    <mxGeometry x="327.5" y="324" width="22.5" height="100" as="geometry"/>
                </mxCell>
                <mxCell id="14" value="" style="endArrow=open;startArrow=none;endFill=0;startFill=0;endSize=8;html=1;verticalAlign=bottom;labelBackgroundColor=none;strokeWidth=2;fontSize=17;dashed=1;" edge="1" parent="1">
                    <mxGeometry width="160" relative="1" as="geometry">
                        <mxPoint x="320" y="380" as="sourcePoint"/>
                        <mxPoint x="120" y="380" as="targetPoint"/>
                    </mxGeometry>
                </mxCell>
                <mxCell id="15" value="message response" style="edgeLabel;html=1;align=center;verticalAlign=middle;resizable=0;points=[];fontSize=17;" vertex="1" connectable="0" parent="14">
                    <mxGeometry x="0.1982" relative="1" as="geometry">
                        <mxPoint x="20" y="20" as="offset"/>
                    </mxGeometry>
                </mxCell>
                <mxCell id="24" value="郵差" style="swimlane;fontStyle=0;childLayout=stackLayout;horizontal=1;startSize=26;fillColor=none;horizontalStack=0;resizeParent=1;resizeParentMax=0;resizeLast=0;collapsible=1;marginBottom=0;fontSize=17;" vertex="1" parent="1">
                    <mxGeometry x="860" y="440" width="140" height="52" as="geometry"/>
                </mxCell>
                <mxCell id="25" value="配送包裹" style="text;strokeColor=none;fillColor=none;align=left;verticalAlign=top;spacingLeft=4;spacingRight=4;overflow=hidden;rotatable=0;points=[[0,0.5],[1,0.5]];portConstraint=eastwest;fontSize=17;" vertex="1" parent="24">
                    <mxGeometry y="26" width="140" height="26" as="geometry"/>
                </mxCell>
                <mxCell id="28" value="警衛" style="swimlane;fontStyle=0;childLayout=stackLayout;horizontal=1;startSize=26;fillColor=none;horizontalStack=0;resizeParent=1;resizeParentMax=0;resizeLast=0;collapsible=1;marginBottom=0;fontSize=17;" vertex="1" parent="1">
                    <mxGeometry x="1120" y="260" width="140" height="52" as="geometry"/>
                </mxCell>
                <mxCell id="29" value="收取包裹" style="text;strokeColor=none;fillColor=none;align=left;verticalAlign=top;spacingLeft=4;spacingRight=4;overflow=hidden;rotatable=0;points=[[0,0.5],[1,0.5]];portConstraint=eastwest;fontSize=17;" vertex="1" parent="28">
                    <mxGeometry y="26" width="140" height="26" as="geometry"/>
                </mxCell>
                <mxCell id="44" style="edgeStyle=none;html=1;strokeWidth=2;fontSize=17;exitX=-0.003;exitY=0.099;exitDx=0;exitDy=0;exitPerimeter=0;endArrow=none;endFill=0;entryX=1;entryY=0.5;entryDx=0;entryDy=0;" edge="1" parent="1" target="24">
                    <mxGeometry relative="1" as="geometry">
                        <mxPoint x="1119.52" y="464.6619999999998" as="sourcePoint"/>
                        <mxPoint x="1000" y="465" as="targetPoint"/>
                    </mxGeometry>
                </mxCell>
                <mxCell id="45" style="edgeStyle=none;html=1;entryX=0.577;entryY=1.048;entryDx=0;entryDy=0;entryPerimeter=0;strokeWidth=2;fontSize=17;endArrow=none;endFill=0;" edge="1" parent="1">
                    <mxGeometry relative="1" as="geometry">
                        <mxPoint x="1175.2749397196453" y="440" as="sourcePoint"/>
                        <mxPoint x="1175.7800000000002" y="313.2480000000003" as="targetPoint"/>
                    </mxGeometry>
                </mxCell>
                <mxCell id="46" value="1" style="edgeLabel;html=1;align=center;verticalAlign=middle;resizable=0;points=[];fontSize=17;" vertex="1" connectable="0" parent="45">
                    <mxGeometry x="0.3432" y="-2" relative="1" as="geometry">
                        <mxPoint x="22" y="-15" as="offset"/>
                    </mxGeometry>
                </mxCell>
                <mxCell id="50" value="1" style="edgeLabel;html=1;align=center;verticalAlign=middle;resizable=0;points=[];fontSize=17;" vertex="1" connectable="0" parent="45">
                    <mxGeometry x="0.3432" y="-2" relative="1" as="geometry">
                        <mxPoint x="-158" y="95" as="offset"/>
                    </mxGeometry>
                </mxCell>
                <mxCell id="58" value="1" style="edgeLabel;html=1;align=center;verticalAlign=middle;resizable=0;points=[];fontSize=17;" vertex="1" connectable="0" parent="45">
                    <mxGeometry x="0.3432" y="-2" relative="1" as="geometry">
                        <mxPoint x="422" y="125" as="offset"/>
                    </mxGeometry>
                </mxCell>
                <mxCell id="114" value="1" style="edgeLabel;html=1;align=center;verticalAlign=middle;resizable=0;points=[];fontSize=17;" vertex="1" connectable="0" parent="45">
                    <mxGeometry x="0.3432" y="-2" relative="1" as="geometry">
                        <mxPoint x="422" y="230" as="offset"/>
                    </mxGeometry>
                </mxCell>
                <mxCell id="117" value="1" style="edgeLabel;html=1;align=center;verticalAlign=middle;resizable=0;points=[];fontSize=17;" vertex="1" connectable="0" parent="45">
                    <mxGeometry x="0.3432" y="-2" relative="1" as="geometry">
                        <mxPoint x="322" y="305" as="offset"/>
                    </mxGeometry>
                </mxCell>
                <mxCell id="129" value="1" style="edgeLabel;html=1;align=center;verticalAlign=middle;resizable=0;points=[];fontSize=17;" vertex="1" connectable="0" parent="45">
                    <mxGeometry x="0.3432" y="-2" relative="1" as="geometry">
                        <mxPoint x="122" y="125" as="offset"/>
                    </mxGeometry>
                </mxCell>
                <mxCell id="130" value="1" style="edgeLabel;html=1;align=center;verticalAlign=middle;resizable=0;points=[];fontSize=17;" vertex="1" connectable="0" parent="45">
                    <mxGeometry x="0.3432" y="-2" relative="1" as="geometry">
                        <mxPoint x="122" y="525" as="offset"/>
                    </mxGeometry>
                </mxCell>
                <mxCell id="140" value="1" style="edgeLabel;html=1;align=center;verticalAlign=middle;resizable=0;points=[];fontSize=17;" vertex="1" connectable="0" parent="45">
                    <mxGeometry x="0.3432" y="-2" relative="1" as="geometry">
                        <mxPoint x="482" y="515" as="offset"/>
                    </mxGeometry>
                </mxCell>
                <mxCell id="36" value="包裹" style="swimlane;fontStyle=1;align=center;verticalAlign=top;childLayout=stackLayout;horizontal=1;startSize=26;horizontalStack=0;resizeParent=1;resizeParentMax=0;resizeLast=0;collapsible=1;marginBottom=0;fontSize=17;" vertex="1" parent="1">
                    <mxGeometry x="1120" y="440" width="160" height="138" as="geometry"/>
                </mxCell>
                <mxCell id="37" value="包裹號碼" style="text;strokeColor=none;fillColor=none;align=left;verticalAlign=top;spacingLeft=4;spacingRight=4;overflow=hidden;rotatable=0;points=[[0,0.5],[1,0.5]];portConstraint=eastwest;fontSize=17;" vertex="1" parent="36">
                    <mxGeometry y="26" width="160" height="26" as="geometry"/>
                </mxCell>
                <mxCell id="40" value="住戶住址" style="text;strokeColor=none;fillColor=none;align=left;verticalAlign=top;spacingLeft=4;spacingRight=4;overflow=hidden;rotatable=0;points=[[0,0.5],[1,0.5]];portConstraint=eastwest;fontSize=17;" vertex="1" parent="36">
                    <mxGeometry y="52" width="160" height="26" as="geometry"/>
                </mxCell>
                <mxCell id="41" value="包裹簽收" style="text;strokeColor=none;fillColor=none;align=left;verticalAlign=top;spacingLeft=4;spacingRight=4;overflow=hidden;rotatable=0;points=[[0,0.5],[1,0.5]];portConstraint=eastwest;fontSize=17;" vertex="1" parent="36">
                    <mxGeometry y="78" width="160" height="26" as="geometry"/>
                </mxCell>
                <mxCell id="38" value="" style="line;strokeWidth=1;fillColor=none;align=left;verticalAlign=middle;spacingTop=-1;spacingLeft=3;spacingRight=3;rotatable=0;labelPosition=right;points=[];portConstraint=eastwest;strokeColor=inherit;fontSize=17;" vertex="1" parent="36">
                    <mxGeometry y="104" width="160" height="8" as="geometry"/>
                </mxCell>
                <mxCell id="39" value="通知發送" style="text;strokeColor=none;fillColor=none;align=left;verticalAlign=top;spacingLeft=4;spacingRight=4;overflow=hidden;rotatable=0;points=[[0,0.5],[1,0.5]];portConstraint=eastwest;fontSize=17;" vertex="1" parent="36">
                    <mxGeometry y="112" width="160" height="26" as="geometry"/>
                </mxCell>
                <mxCell id="51" value="" style="triangle;whiteSpace=wrap;html=1;fontSize=17;rotation=-180;" vertex="1" parent="1">
                    <mxGeometry x="1010" y="400" width="22.5" height="30" as="geometry"/>
                </mxCell>
                <mxCell id="52" value="簽收" style="text;html=1;align=center;verticalAlign=middle;resizable=0;points=[];autosize=1;strokeColor=none;fillColor=none;fontSize=17;" vertex="1" parent="1">
                    <mxGeometry x="1032.5" y="400" width="60" height="30" as="geometry"/>
                </mxCell>
                <mxCell id="53" value="" style="triangle;whiteSpace=wrap;html=1;fontSize=17;rotation=90;" vertex="1" parent="1">
                    <mxGeometry x="1197.5" y="380" width="22.5" height="30" as="geometry"/>
                </mxCell>
                <mxCell id="54" value="簽收" style="text;html=1;align=center;verticalAlign=middle;resizable=0;points=[];autosize=1;strokeColor=none;fillColor=none;fontSize=17;" vertex="1" parent="1">
                    <mxGeometry x="1190" y="350" width="60" height="30" as="geometry"/>
                </mxCell>
                <mxCell id="55" value="手機" style="swimlane;fontStyle=0;childLayout=stackLayout;horizontal=1;startSize=26;fillColor=none;horizontalStack=0;resizeParent=1;resizeParentMax=0;resizeLast=0;collapsible=1;marginBottom=0;fontSize=17;" vertex="1" parent="1">
                    <mxGeometry x="1710" y="401" width="140" height="78" as="geometry"/>
                </mxCell>
                <mxCell id="57" value="app綁定" style="text;strokeColor=none;fillColor=none;align=left;verticalAlign=top;spacingLeft=4;spacingRight=4;overflow=hidden;rotatable=0;points=[[0,0.5],[1,0.5]];portConstraint=eastwest;fontSize=17;" vertex="1" parent="55">
                    <mxGeometry y="26" width="140" height="26" as="geometry"/>
                </mxCell>
                <mxCell id="56" value="手機號碼" style="text;strokeColor=none;fillColor=none;align=left;verticalAlign=top;spacingLeft=4;spacingRight=4;overflow=hidden;rotatable=0;points=[[0,0.5],[1,0.5]];portConstraint=eastwest;fontSize=17;" vertex="1" parent="55">
                    <mxGeometry y="52" width="140" height="26" as="geometry"/>
                </mxCell>
                <mxCell id="60" value="" style="triangle;whiteSpace=wrap;html=1;fontSize=17;rotation=0;" vertex="1" parent="1">
                    <mxGeometry x="1654" y="410" width="22.5" height="30" as="geometry"/>
                </mxCell>
                <mxCell id="61" value="住戶" style="swimlane;fontStyle=1;align=center;verticalAlign=top;childLayout=stackLayout;horizontal=1;startSize=26;horizontalStack=0;resizeParent=1;resizeParentMax=0;resizeLast=0;collapsible=1;marginBottom=0;fontSize=17;" vertex="1" parent="1">
                    <mxGeometry x="1410" y="440" width="160" height="190" as="geometry"/>
                </mxCell>
                <mxCell id="62" value="姓名" style="text;strokeColor=none;fillColor=none;align=left;verticalAlign=top;spacingLeft=4;spacingRight=4;overflow=hidden;rotatable=0;points=[[0,0.5],[1,0.5]];portConstraint=eastwest;fontSize=17;" vertex="1" parent="61">
                    <mxGeometry y="26" width="160" height="26" as="geometry"/>
                </mxCell>
                <mxCell id="63" value="地址" style="text;strokeColor=none;fillColor=none;align=left;verticalAlign=top;spacingLeft=4;spacingRight=4;overflow=hidden;rotatable=0;points=[[0,0.5],[1,0.5]];portConstraint=eastwest;fontSize=17;" vertex="1" parent="61">
                    <mxGeometry y="52" width="160" height="26" as="geometry"/>
                </mxCell>
                <mxCell id="64" value="手機號碼" style="text;strokeColor=none;fillColor=none;align=left;verticalAlign=top;spacingLeft=4;spacingRight=4;overflow=hidden;rotatable=0;points=[[0,0.5],[1,0.5]];portConstraint=eastwest;fontSize=17;" vertex="1" parent="61">
                    <mxGeometry y="78" width="160" height="26" as="geometry"/>
                </mxCell>
                <mxCell id="65" value="" style="line;strokeWidth=1;fillColor=none;align=left;verticalAlign=middle;spacingTop=-1;spacingLeft=3;spacingRight=3;rotatable=0;labelPosition=right;points=[];portConstraint=eastwest;strokeColor=inherit;fontSize=17;" vertex="1" parent="61">
                    <mxGeometry y="104" width="160" height="8" as="geometry"/>
                </mxCell>
                <mxCell id="66" value="查看包裹資訊" style="text;strokeColor=none;fillColor=none;align=left;verticalAlign=top;spacingLeft=4;spacingRight=4;overflow=hidden;rotatable=0;points=[[0,0.5],[1,0.5]];portConstraint=eastwest;fontSize=17;" vertex="1" parent="61">
                    <mxGeometry y="112" width="160" height="26" as="geometry"/>
                </mxCell>
                <mxCell id="67" value="收到公告" style="text;strokeColor=none;fillColor=none;align=left;verticalAlign=top;spacingLeft=4;spacingRight=4;overflow=hidden;rotatable=0;points=[[0,0.5],[1,0.5]];portConstraint=eastwest;fontSize=17;" vertex="1" parent="61">
                    <mxGeometry y="138" width="160" height="26" as="geometry"/>
                </mxCell>
                <mxCell id="68" value="發送通知" style="text;strokeColor=none;fillColor=none;align=left;verticalAlign=top;spacingLeft=4;spacingRight=4;overflow=hidden;rotatable=0;points=[[0,0.5],[1,0.5]];portConstraint=eastwest;fontSize=17;" vertex="1" parent="61">
                    <mxGeometry y="164" width="160" height="26" as="geometry"/>
                </mxCell>
                <mxCell id="69" style="edgeStyle=none;html=1;strokeWidth=2;fontSize=17;endArrow=none;endFill=0;exitX=1;exitY=0.105;exitDx=0;exitDy=0;exitPerimeter=0;entryX=0.922;entryY=-0.014;entryDx=0;entryDy=0;entryPerimeter=0;" edge="1" parent="1" source="61" target="77">
                    <mxGeometry relative="1" as="geometry">
                        <mxPoint x="1499.7949397196453" y="410" as="sourcePoint"/>
                        <mxPoint x="1710" y="465" as="targetPoint"/>
                    </mxGeometry>
                </mxCell>
                <mxCell id="71" value="1" style="edgeLabel;html=1;align=center;verticalAlign=middle;resizable=0;points=[];fontSize=17;" vertex="1" connectable="0" parent="69">
                    <mxGeometry x="0.3432" y="-2" relative="1" as="geometry">
                        <mxPoint x="-182" y="109" as="offset"/>
                    </mxGeometry>
                </mxCell>
                <mxCell id="73" value="綁定" style="text;html=1;align=center;verticalAlign=middle;resizable=0;points=[];autosize=1;strokeColor=none;fillColor=none;fontSize=17;" vertex="1" parent="1">
                    <mxGeometry x="1590" y="410" width="60" height="30" as="geometry"/>
                </mxCell>
                <mxCell id="75" value="" style="endArrow=none;html=1;strokeWidth=2;fontSize=17;entryX=0;entryY=0.5;entryDx=0;entryDy=0;exitX=1;exitY=0.5;exitDx=0;exitDy=0;" edge="1" parent="1" source="40" target="63">
                    <mxGeometry width="50" height="50" relative="1" as="geometry">
                        <mxPoint x="1290" y="512" as="sourcePoint"/>
                        <mxPoint x="1330" y="470" as="targetPoint"/>
                    </mxGeometry>
                </mxCell>
                <mxCell id="77" value="1...*" style="text;html=1;align=center;verticalAlign=middle;resizable=0;points=[];autosize=1;strokeColor=none;fillColor=none;fontSize=17;" vertex="1" parent="1">
                    <mxGeometry x="1662.88" y="460" width="50" height="30" as="geometry"/>
                </mxCell>
                <mxCell id="78" value="1...*" style="text;html=1;align=center;verticalAlign=middle;resizable=0;points=[];autosize=1;strokeColor=none;fillColor=none;fontSize=17;" vertex="1" parent="1">
                    <mxGeometry x="1183.75" y="410" width="50" height="30" as="geometry"/>
                </mxCell>
                <mxCell id="79" value="1...*" style="text;html=1;align=center;verticalAlign=middle;resizable=0;points=[];autosize=1;strokeColor=none;fillColor=none;fontSize=17;" vertex="1" parent="1">
                    <mxGeometry x="1060" y="430" width="50" height="30" as="geometry"/>
                </mxCell>
                <mxCell id="80" value="1...*" style="text;html=1;align=center;verticalAlign=middle;resizable=0;points=[];autosize=1;strokeColor=none;fillColor=none;fontSize=17;" vertex="1" parent="1">
                    <mxGeometry x="1350.19" y="462" width="50" height="30" as="geometry"/>
                </mxCell>
                <mxCell id="81" value="" style="triangle;whiteSpace=wrap;html=1;fontSize=17;rotation=-180;" vertex="1" parent="1">
                    <mxGeometry x="1300" y="530" width="22.5" height="30" as="geometry"/>
                </mxCell>
                <mxCell id="82" value="拿取" style="text;html=1;align=center;verticalAlign=middle;resizable=0;points=[];autosize=1;strokeColor=none;fillColor=none;fontSize=17;" vertex="1" parent="1">
                    <mxGeometry x="1322.5" y="530" width="60" height="30" as="geometry"/>
                </mxCell>
                <mxCell id="83" value="回應" style="swimlane;fontStyle=0;childLayout=stackLayout;horizontal=1;startSize=26;fillColor=none;horizontalStack=0;resizeParent=1;resizeParentMax=0;resizeLast=0;collapsible=1;marginBottom=0;fontSize=17;" vertex="1" parent="1">
                    <mxGeometry x="1700" y="540" width="140" height="130" as="geometry"/>
                </mxCell>
                <mxCell id="84" value="標題" style="text;strokeColor=none;fillColor=none;align=left;verticalAlign=top;spacingLeft=4;spacingRight=4;overflow=hidden;rotatable=0;points=[[0,0.5],[1,0.5]];portConstraint=eastwest;fontSize=17;" vertex="1" parent="83">
                    <mxGeometry y="26" width="140" height="26" as="geometry"/>
                </mxCell>
                <mxCell id="85" value="內容" style="text;strokeColor=none;fillColor=none;align=left;verticalAlign=top;spacingLeft=4;spacingRight=4;overflow=hidden;rotatable=0;points=[[0,0.5],[1,0.5]];portConstraint=eastwest;fontSize=17;" vertex="1" parent="83">
                    <mxGeometry y="52" width="140" height="26" as="geometry"/>
                </mxCell>
                <mxCell id="86" value="發送時間" style="text;strokeColor=none;fillColor=none;align=left;verticalAlign=top;spacingLeft=4;spacingRight=4;overflow=hidden;rotatable=0;points=[[0,0.5],[1,0.5]];portConstraint=eastwest;fontSize=17;" vertex="1" parent="83">
                    <mxGeometry y="78" width="140" height="26" as="geometry"/>
                </mxCell>
                <mxCell id="87" value="回應紀錄" style="text;strokeColor=none;fillColor=none;align=left;verticalAlign=top;spacingLeft=4;spacingRight=4;overflow=hidden;rotatable=0;points=[[0,0.5],[1,0.5]];portConstraint=eastwest;fontSize=17;" vertex="1" parent="83">
                    <mxGeometry y="104" width="140" height="26" as="geometry"/>
                </mxCell>
                <mxCell id="93" value="" style="endArrow=none;html=1;strokeWidth=2;fontSize=17;entryX=0;entryY=0.5;entryDx=0;entryDy=0;exitX=1;exitY=0.5;exitDx=0;exitDy=0;" edge="1" parent="1">
                    <mxGeometry width="50" height="50" relative="1" as="geometry">
                        <mxPoint x="1570" y="604.4100000000001" as="sourcePoint"/>
                        <mxPoint x="1700" y="604.4100000000001" as="targetPoint"/>
                    </mxGeometry>
                </mxCell>
                <mxCell id="95" value="1...*" style="text;html=1;align=center;verticalAlign=middle;resizable=0;points=[];autosize=1;strokeColor=none;fillColor=none;fontSize=17;" vertex="1" parent="1">
                    <mxGeometry x="1654" y="570" width="50" height="30" as="geometry"/>
                </mxCell>
                <mxCell id="96" value="發送" style="text;html=1;align=center;verticalAlign=middle;resizable=0;points=[];autosize=1;strokeColor=none;fillColor=none;fontSize=17;" vertex="1" parent="1">
                    <mxGeometry x="1580.38" y="616" width="60" height="30" as="geometry"/>
                </mxCell>
                <mxCell id="97" value="" style="triangle;whiteSpace=wrap;html=1;fontSize=17;rotation=0;" vertex="1" parent="1">
                    <mxGeometry x="1640.38" y="616" width="22.5" height="30" as="geometry"/>
                </mxCell>
                <mxCell id="102" value="公告" style="swimlane;fontStyle=1;align=center;verticalAlign=top;childLayout=stackLayout;horizontal=1;startSize=26;horizontalStack=0;resizeParent=1;resizeParentMax=0;resizeLast=0;collapsible=1;marginBottom=0;fontSize=17;" vertex="1" parent="1">
                    <mxGeometry x="1410" y="800" width="160" height="190" as="geometry"/>
                </mxCell>
                <mxCell id="103" value="內容" style="text;strokeColor=none;fillColor=none;align=left;verticalAlign=top;spacingLeft=4;spacingRight=4;overflow=hidden;rotatable=0;points=[[0,0.5],[1,0.5]];portConstraint=eastwest;fontSize=17;" vertex="1" parent="102">
                    <mxGeometry y="26" width="160" height="26" as="geometry"/>
                </mxCell>
                <mxCell id="104" value="標題" style="text;strokeColor=none;fillColor=none;align=left;verticalAlign=top;spacingLeft=4;spacingRight=4;overflow=hidden;rotatable=0;points=[[0,0.5],[1,0.5]];portConstraint=eastwest;fontSize=17;" vertex="1" parent="102">
                    <mxGeometry y="52" width="160" height="26" as="geometry"/>
                </mxCell>
                <mxCell id="105" value="回應記錄" style="text;strokeColor=none;fillColor=none;align=left;verticalAlign=top;spacingLeft=4;spacingRight=4;overflow=hidden;rotatable=0;points=[[0,0.5],[1,0.5]];portConstraint=eastwest;fontSize=17;" vertex="1" parent="102">
                    <mxGeometry y="78" width="160" height="26" as="geometry"/>
                </mxCell>
                <mxCell id="106" value="" style="line;strokeWidth=1;fillColor=none;align=left;verticalAlign=middle;spacingTop=-1;spacingLeft=3;spacingRight=3;rotatable=0;labelPosition=right;points=[];portConstraint=eastwest;strokeColor=inherit;fontSize=17;" vertex="1" parent="102">
                    <mxGeometry y="104" width="160" height="8" as="geometry"/>
                </mxCell>
                <mxCell id="107" value="新增公告" style="text;strokeColor=none;fillColor=none;align=left;verticalAlign=top;spacingLeft=4;spacingRight=4;overflow=hidden;rotatable=0;points=[[0,0.5],[1,0.5]];portConstraint=eastwest;fontSize=17;" vertex="1" parent="102">
                    <mxGeometry y="112" width="160" height="26" as="geometry"/>
                </mxCell>
                <mxCell id="108" value="修改公告" style="text;strokeColor=none;fillColor=none;align=left;verticalAlign=top;spacingLeft=4;spacingRight=4;overflow=hidden;rotatable=0;points=[[0,0.5],[1,0.5]];portConstraint=eastwest;fontSize=17;" vertex="1" parent="102">
                    <mxGeometry y="138" width="160" height="26" as="geometry"/>
                </mxCell>
                <mxCell id="109" value="刪除公告" style="text;strokeColor=none;fillColor=none;align=left;verticalAlign=top;spacingLeft=4;spacingRight=4;overflow=hidden;rotatable=0;points=[[0,0.5],[1,0.5]];portConstraint=eastwest;fontSize=17;" vertex="1" parent="102">
                    <mxGeometry y="164" width="160" height="26" as="geometry"/>
                </mxCell>
                <mxCell id="110" style="edgeStyle=none;html=1;entryX=0.577;entryY=1.048;entryDx=0;entryDy=0;entryPerimeter=0;strokeWidth=2;fontSize=17;endArrow=none;endFill=0;exitX=0.442;exitY=0.004;exitDx=0;exitDy=0;exitPerimeter=0;" edge="1" parent="1" source="102">
                    <mxGeometry relative="1" as="geometry">
                        <mxPoint x="1480.0049397196453" y="756.75" as="sourcePoint"/>
                        <mxPoint x="1480.5100000000002" y="629.9980000000003" as="targetPoint"/>
                    </mxGeometry>
                </mxCell>
                <mxCell id="115" value="" style="triangle;whiteSpace=wrap;html=1;fontSize=17;rotation=90;" vertex="1" parent="1">
                    <mxGeometry x="1430" y="740" width="22.5" height="30" as="geometry"/>
                </mxCell>
                <mxCell id="116" value="查看" style="text;html=1;align=center;verticalAlign=middle;resizable=0;points=[];autosize=1;strokeColor=none;fillColor=none;fontSize=17;" vertex="1" parent="1">
                    <mxGeometry x="1410" y="715" width="60" height="30" as="geometry"/>
                </mxCell>
                <mxCell id="118" value="1...*" style="text;html=1;align=center;verticalAlign=middle;resizable=0;points=[];autosize=1;strokeColor=none;fillColor=none;fontSize=17;" vertex="1" parent="1">
                    <mxGeometry x="1490" y="760" width="50" height="30" as="geometry"/>
                </mxCell>
                <mxCell id="119" value="主任委員" style="swimlane;fontStyle=0;childLayout=stackLayout;horizontal=1;startSize=26;fillColor=none;horizontalStack=0;resizeParent=1;resizeParentMax=0;resizeLast=0;collapsible=1;marginBottom=0;fontSize=17;" vertex="1" parent="1">
                    <mxGeometry x="1138.75" y="860" width="140" height="104" as="geometry"/>
                </mxCell>
                <mxCell id="124" value="新增公告" style="text;strokeColor=none;fillColor=none;align=left;verticalAlign=top;spacingLeft=4;spacingRight=4;overflow=hidden;rotatable=0;points=[[0,0.5],[1,0.5]];portConstraint=eastwest;fontSize=17;" vertex="1" parent="119">
                    <mxGeometry y="26" width="140" height="26" as="geometry"/>
                </mxCell>
                <mxCell id="125" value="修改公告" style="text;strokeColor=none;fillColor=none;align=left;verticalAlign=top;spacingLeft=4;spacingRight=4;overflow=hidden;rotatable=0;points=[[0,0.5],[1,0.5]];portConstraint=eastwest;fontSize=17;" vertex="1" parent="119">
                    <mxGeometry y="52" width="140" height="26" as="geometry"/>
                </mxCell>
                <mxCell id="126" value="刪除公告" style="text;strokeColor=none;fillColor=none;align=left;verticalAlign=top;spacingLeft=4;spacingRight=4;overflow=hidden;rotatable=0;points=[[0,0.5],[1,0.5]];portConstraint=eastwest;fontSize=17;" vertex="1" parent="119">
                    <mxGeometry y="78" width="140" height="26" as="geometry"/>
                </mxCell>
                <mxCell id="127" value="" style="endArrow=none;html=1;strokeWidth=2;fontSize=17;entryX=0;entryY=0.5;entryDx=0;entryDy=0;exitX=1;exitY=0.5;exitDx=0;exitDy=0;" edge="1" parent="1">
                    <mxGeometry width="50" height="50" relative="1" as="geometry">
                        <mxPoint x="1280" y="894.4100000000001" as="sourcePoint"/>
                        <mxPoint x="1410" y="894.4100000000001" as="targetPoint"/>
                    </mxGeometry>
                </mxCell>
                <mxCell id="128" value="1...*" style="text;html=1;align=center;verticalAlign=middle;resizable=0;points=[];autosize=1;strokeColor=none;fillColor=none;fontSize=17;" vertex="1" parent="1">
                    <mxGeometry x="1350.19" y="860" width="50" height="30" as="geometry"/>
                </mxCell>
                <mxCell id="133" value="" style="triangle;whiteSpace=wrap;html=1;fontSize=17;rotation=0;" vertex="1" parent="1">
                    <mxGeometry x="1360" y="920" width="22.5" height="30" as="geometry"/>
                </mxCell>
                <mxCell id="134" value="發送" style="text;html=1;align=center;verticalAlign=middle;resizable=0;points=[];autosize=1;strokeColor=none;fillColor=none;fontSize=17;" vertex="1" parent="1">
                    <mxGeometry x="1612.5" y="910" width="60" height="30" as="geometry"/>
                </mxCell>
                <mxCell id="135" value="委員" style="swimlane;fontStyle=0;childLayout=stackLayout;horizontal=1;startSize=26;fillColor=none;horizontalStack=0;resizeParent=1;resizeParentMax=0;resizeLast=0;collapsible=1;marginBottom=0;fontSize=17;" vertex="1" parent="1">
                    <mxGeometry x="1690" y="860" width="140" height="104" as="geometry"/>
                </mxCell>
                <mxCell id="136" value="新增公告" style="text;strokeColor=none;fillColor=none;align=left;verticalAlign=top;spacingLeft=4;spacingRight=4;overflow=hidden;rotatable=0;points=[[0,0.5],[1,0.5]];portConstraint=eastwest;fontSize=17;" vertex="1" parent="135">
                    <mxGeometry y="26" width="140" height="26" as="geometry"/>
                </mxCell>
                <mxCell id="137" value="修改公告" style="text;strokeColor=none;fillColor=none;align=left;verticalAlign=top;spacingLeft=4;spacingRight=4;overflow=hidden;rotatable=0;points=[[0,0.5],[1,0.5]];portConstraint=eastwest;fontSize=17;" vertex="1" parent="135">
                    <mxGeometry y="52" width="140" height="26" as="geometry"/>
                </mxCell>
                <mxCell id="138" value="刪除公告" style="text;strokeColor=none;fillColor=none;align=left;verticalAlign=top;spacingLeft=4;spacingRight=4;overflow=hidden;rotatable=0;points=[[0,0.5],[1,0.5]];portConstraint=eastwest;fontSize=17;" vertex="1" parent="135">
                    <mxGeometry y="78" width="140" height="26" as="geometry"/>
                </mxCell>
                <mxCell id="139" value="1...*" style="text;html=1;align=center;verticalAlign=middle;resizable=0;points=[];autosize=1;strokeColor=none;fillColor=none;fontSize=17;" vertex="1" parent="1">
                    <mxGeometry x="1580.38" y="860" width="50" height="30" as="geometry"/>
                </mxCell>
                <mxCell id="141" value="" style="endArrow=none;html=1;strokeWidth=2;fontSize=17;entryX=0;entryY=0.5;entryDx=0;entryDy=0;exitX=1;exitY=0.5;exitDx=0;exitDy=0;" edge="1" parent="1">
                    <mxGeometry width="50" height="50" relative="1" as="geometry">
                        <mxPoint x="1560" y="894.4100000000001" as="sourcePoint"/>
                        <mxPoint x="1690" y="894.4100000000001" as="targetPoint"/>
                    </mxGeometry>
                </mxCell>
                <mxCell id="143" value="" style="triangle;whiteSpace=wrap;html=1;fontSize=17;rotation=-180;" vertex="1" parent="1">
                    <mxGeometry x="1590" y="910" width="22.5" height="30" as="geometry"/>
                </mxCell>
                <mxCell id="144" value="發送" style="text;html=1;align=center;verticalAlign=middle;resizable=0;points=[];autosize=1;strokeColor=none;fillColor=none;fontSize=17;" vertex="1" parent="1">
                    <mxGeometry x="1300" y="920" width="60" height="30" as="geometry"/>
                </mxCell>
            </root>
        </mxGraphModel>
    </diagram>
</mxfile>